<svg xmlns="http://www.w3.org/2000/svg" width="25" height="25" fill="none" viewBox="0 0 430 430"><path fill="url(#DJH9zQeCkJa)" d="M292.024 146.461a6 6 0 0 0-8.485-8.485l-67.175 67.175a6 6 0 1 0 8.485 8.486z"/><path fill="url(#4te1b7V5wHb)" fill-rule="evenodd" d="M318.894 46.052a6 6 0 0 1 8.485 0l56.569 56.569a6 6 0 0 1 0 8.485l-35.355 35.355-.033.033-190.84 190.839a5.96 5.96 0 0 1-2.491 1.53l-84.706 28.293a6 6 0 0 1-7.594-7.584l28.197-84.766a6 6 0 0 1 1.494-2.48L283.539 81.407l.032-.032zm16.971 96.167L153.431 324.652l-48.083-48.083L287.781 94.135zM99.49 287.681l42.839 42.839-64.226 21.453z" clip-rule="evenodd"/><defs><linearGradient id="DJH9zQeCkJa" x1="62.622" x2="369.331" y1="356.852" y2="85.2438" gradientUnits="userSpaceOnUse"><stop stop-color="#2516c7"/><stop offset="1" stop-color="#4f1091"/></linearGradient><linearGradient id="4te1b7V5wHb" x1="62.622" x2="369.331" y1="356.852" y2="85.2438" gradientUnits="userSpaceOnUse"><stop stop-color="#2516c7"/><stop offset="1" stop-color="#4f1091"/></linearGradient></defs></svg>